<mxfile host="app.diagrams.net" modified="2021-02-25T11:01:48.517Z" agent="5.0 (Macintosh; Intel Mac OS X 11_0_1) AppleWebKit/537.36 (KHTML, like Gecko) Chrome/88.0.4324.146 Safari/537.36" etag="ozzerKCJm21xPpkcbt5R" version="14.2.9" type="github">
  <diagram id="vzLJC0bMYDoESa7VsUAp" name="Page-1">
    <mxGraphModel dx="1426" dy="711" grid="1" gridSize="10" guides="1" tooltips="1" connect="1" arrows="1" fold="1" page="1" pageScale="1" pageWidth="827" pageHeight="1169" math="0" shadow="0">
      <root>
        <mxCell id="0" />
        <mxCell id="1" parent="0" />
        <mxCell id="xkyAeQGXJ-MYlYoXamzG-12" style="edgeStyle=none;rounded=0;orthogonalLoop=1;jettySize=auto;html=1;entryX=0.5;entryY=1;entryDx=0;entryDy=0;entryPerimeter=0;" edge="1" parent="1" source="xkyAeQGXJ-MYlYoXamzG-3" target="xkyAeQGXJ-MYlYoXamzG-11">
          <mxGeometry relative="1" as="geometry" />
        </mxCell>
        <mxCell id="xkyAeQGXJ-MYlYoXamzG-13" value="实时在线人数、实时QPS、机器指标" style="edgeLabel;html=1;align=center;verticalAlign=middle;resizable=0;points=[];" vertex="1" connectable="0" parent="xkyAeQGXJ-MYlYoXamzG-12">
          <mxGeometry x="0.0444" relative="1" as="geometry">
            <mxPoint as="offset" />
          </mxGeometry>
        </mxCell>
        <mxCell id="xkyAeQGXJ-MYlYoXamzG-17" value="存储" style="edgeStyle=none;rounded=0;orthogonalLoop=1;jettySize=auto;html=1;exitX=1;exitY=0.75;exitDx=0;exitDy=0;" edge="1" parent="1" source="xkyAeQGXJ-MYlYoXamzG-3" target="xkyAeQGXJ-MYlYoXamzG-6">
          <mxGeometry relative="1" as="geometry" />
        </mxCell>
        <mxCell id="xkyAeQGXJ-MYlYoXamzG-3" value="ksb-center" style="rounded=1;whiteSpace=wrap;html=1;" vertex="1" parent="1">
          <mxGeometry x="354" y="210" width="120" height="60" as="geometry" />
        </mxCell>
        <mxCell id="xkyAeQGXJ-MYlYoXamzG-14" style="edgeStyle=none;rounded=0;orthogonalLoop=1;jettySize=auto;html=1;" edge="1" parent="1" source="xkyAeQGXJ-MYlYoXamzG-4" target="xkyAeQGXJ-MYlYoXamzG-3">
          <mxGeometry relative="1" as="geometry" />
        </mxCell>
        <mxCell id="xkyAeQGXJ-MYlYoXamzG-15" value="QPS" style="edgeLabel;html=1;align=center;verticalAlign=middle;resizable=0;points=[];" vertex="1" connectable="0" parent="xkyAeQGXJ-MYlYoXamzG-14">
          <mxGeometry x="-0.2444" y="-2" relative="1" as="geometry">
            <mxPoint as="offset" />
          </mxGeometry>
        </mxCell>
        <mxCell id="xkyAeQGXJ-MYlYoXamzG-4" value="ksb-gateway" style="rounded=1;whiteSpace=wrap;html=1;" vertex="1" parent="1">
          <mxGeometry x="354" y="450" width="120" height="60" as="geometry" />
        </mxCell>
        <mxCell id="xkyAeQGXJ-MYlYoXamzG-9" style="rounded=0;orthogonalLoop=1;jettySize=auto;html=1;entryX=0;entryY=0.5;entryDx=0;entryDy=0;" edge="1" parent="1" source="xkyAeQGXJ-MYlYoXamzG-5" target="xkyAeQGXJ-MYlYoXamzG-3">
          <mxGeometry relative="1" as="geometry" />
        </mxCell>
        <mxCell id="xkyAeQGXJ-MYlYoXamzG-10" value="在线人数" style="edgeLabel;html=1;align=center;verticalAlign=middle;resizable=0;points=[];" vertex="1" connectable="0" parent="xkyAeQGXJ-MYlYoXamzG-9">
          <mxGeometry x="0.1814" y="-1" relative="1" as="geometry">
            <mxPoint as="offset" />
          </mxGeometry>
        </mxCell>
        <mxCell id="xkyAeQGXJ-MYlYoXamzG-5" value="ksb-live" style="rounded=1;whiteSpace=wrap;html=1;" vertex="1" parent="1">
          <mxGeometry x="60" y="290" width="120" height="60" as="geometry" />
        </mxCell>
        <mxCell id="xkyAeQGXJ-MYlYoXamzG-18" style="edgeStyle=none;rounded=0;orthogonalLoop=1;jettySize=auto;html=1;entryX=0;entryY=0.5;entryDx=0;entryDy=0;entryPerimeter=0;" edge="1" parent="1" source="xkyAeQGXJ-MYlYoXamzG-6" target="xkyAeQGXJ-MYlYoXamzG-7">
          <mxGeometry relative="1" as="geometry" />
        </mxCell>
        <mxCell id="xkyAeQGXJ-MYlYoXamzG-19" value="批量存储（达量执行）" style="edgeLabel;html=1;align=center;verticalAlign=middle;resizable=0;points=[];" vertex="1" connectable="0" parent="xkyAeQGXJ-MYlYoXamzG-18">
          <mxGeometry x="-0.0769" y="-1" relative="1" as="geometry">
            <mxPoint as="offset" />
          </mxGeometry>
        </mxCell>
        <mxCell id="xkyAeQGXJ-MYlYoXamzG-6" value="ksb-superapi" style="rounded=1;whiteSpace=wrap;html=1;" vertex="1" parent="1">
          <mxGeometry x="590" y="330" width="120" height="60" as="geometry" />
        </mxCell>
        <mxCell id="xkyAeQGXJ-MYlYoXamzG-7" value="ck" style="shape=cylinder3;whiteSpace=wrap;html=1;boundedLbl=1;backgroundOutline=1;size=15;" vertex="1" parent="1">
          <mxGeometry x="910" y="320" width="60" height="80" as="geometry" />
        </mxCell>
        <mxCell id="xkyAeQGXJ-MYlYoXamzG-16" value="机器指标" style="edgeStyle=none;rounded=0;orthogonalLoop=1;jettySize=auto;html=1;entryX=0;entryY=1;entryDx=0;entryDy=0;" edge="1" parent="1" source="xkyAeQGXJ-MYlYoXamzG-8" target="xkyAeQGXJ-MYlYoXamzG-3">
          <mxGeometry relative="1" as="geometry" />
        </mxCell>
        <mxCell id="xkyAeQGXJ-MYlYoXamzG-8" value="ksb-user&lt;br&gt;...." style="rounded=1;whiteSpace=wrap;html=1;" vertex="1" parent="1">
          <mxGeometry x="140" y="420" width="120" height="60" as="geometry" />
        </mxCell>
        <mxCell id="xkyAeQGXJ-MYlYoXamzG-11" value="控制台" style="whiteSpace=wrap;html=1;shape=mxgraph.basic.isocube;isoAngle=15;" vertex="1" parent="1">
          <mxGeometry x="379" y="60" width="70" height="60" as="geometry" />
        </mxCell>
      </root>
    </mxGraphModel>
  </diagram>
</mxfile>
